<svg xmlns="http://www.w3.org/2000/svg" version="1.1" xmlns:xlink="http://www.w3.org/1999/xlink" width="328.42" height="319.01"><svg xmlns="http://www.w3.org/2000/svg" version="1.1" xmlns:xlink="http://www.w3.org/1999/xlink" width="328.42" height="319.01"><svg id="Layer_1" data-name="Layer 1" xmlns="http://www.w3.org/2000/svg" viewBox="0 0 328.42 319.01">
  <defs>
    <style>
      .cls-1 {
        fill: #fba0af;
      }

      .cls-2 {
        fill: #fee457;
      }

      .cls-3 {
        fill: #a4ddca;
      }

      .cls-4 {
        fill: #fee147;
      }

      .cls-5 {
        fill: #b8e2a4;
      }

      .cls-6 {
        fill: #b0ddbc;
      }

      .cls-7 {
        fill: #fdb37c;
      }

      .cls-8 {
        fill: #b69bd0;
      }

      .cls-9 {
        fill: #feac9b;
      }

      .cls-10 {
        fill: #b79bd1;
      }

      .cls-11 {
        fill: #a6d8b2;
      }
    </style>
  </defs>
  <path class="cls-10" d="M109.65,12.81c59.22,4.35,91.56,78.54,61.74,127.63-8.17,13.45-27.67,29.08-43.03,16.73-13.69-11.01-1.38-34.79-10.93-51.91-16.71-29.95-63.94-19.59-68.46-47.88-4.56-28.53,37.06-46.3,60.68-44.57Z"></path>
  <path class="cls-5" d="M310.85,162.08c-17.15,24.9-48.83,33.35-76.51,21.02-8.72-3.89-15.96-10.34-25.12-13.92-3.53-1.13-7.14-1.71-10.84-1.91-2.75-.02-6.45.84-9.41.13-12.83-3.1-10.42-17.58-.59-23.66,11.03-6.82,26.17-1.79,39.02-4.67,19.61-4.4,33.56-19.11,51.72-24.77,37.86-11.79,52.44,17.72,31.73,47.78Z"></path>
  <path class="cls-1" d="M.09,168.87c1.95-21.57,13.86-36.97,16.4-40.07,17.53-21.31,68.5-45.11,85.88-12.99,16.54,30.57-28.28,36.36-42.2,51.94-11.03,12.36-9.82,31.26-25.06,36.94C13.73,212.67-1.34,187.29.09,168.87Z"></path>
  <path class="cls-6" d="M217.67,127.01c-2.46-.12-8.59-1.13-10.84-1.91-17.04-5.87-2.57-30.33-.82-41.22,1.53-9.48-1.82-22.42-8.06-29.82-7.21-8.54-24.25-15.26-24.19-27.94.09-17.63,16.54-27.48,32.77-25.97,2.09,1.13,4.53,1.57,6.89,1.22,23.86,6.2,39.53,35.79,40.89,58.98,1.28,21.78-7.2,68.11-36.64,66.66Z"></path>
  <path class="cls-9" d="M167.24,304.64c-5.48,9.21-19.62,15.09-30.12,14.3-3.95-.3-10.97-1.54-14.78-2.61-39-10.96-54.2-79.83-14.86-99.5,12.38-6.18,29.92-2.03,28.9,14.14-.98,15.59-7.39,25.4,5.32,39.44,10.18,11.25,37.87,13.51,25.54,34.23Z"></path>
  <path class="cls-2" d="M226.9,264.34c-1.76,13.97-18.71,18.58-30.41,17.34-1.82-.19-4.15-.58-5.91-1.04-28.16-7.3-40.87-33.96-33.86-61.29,4.46-17.36,21.01-42.66,41.88-38.92,19.83,3.55,8.33,23.77,7.24,36.43-1.72,20.23,23.07,31.43,21.06,47.48Z"></path>
  <path class="cls-4" d="M328.37,207.01c-.16,2.61-.97,7.11-1.66,9.65-6.72,24.38-29.64,33.05-52.55,33.33-3.72.05-11.54-1.2-17.02-3.06-14.26-4.82-32.53-17.94-31.85-35.18.97-24.53,23.75-5.96,36.14-3.78,8.55,1.51,20.74-1.57,27.95-6.47,7.18-4.86,16.35-19.85,25.2-18.93,10.27,1.06,14.36,15.61,13.8,24.44Z"></path>
  <path class="cls-3" d="M105.44,163.38c10.18.92,16.6,6.21,25.62,8.31,10.15,2.36,32.61-3.62,26.09,14.99-6.84,19.52-38.6,12.25-55.43,18.22-12.15,4.31-25.06,19.99-37.94,9.59-3.9-3.15-4.87-8.54-4.43-13.29,1.96-21.23,25.08-39.71,46.09-37.81Z"></path>
  <path class="cls-5" d="M224.54,310.02c-6.79-.59-20.12-3.78-16.31-13.34,2.04-5.09,15.12-9.33,19.9-13.57,7.22-6.4,12.07-24.32,21.18-24.61.9-.02,4.09.54,4.93.87,3.64,1.46,6.71,7.96,7.38,11.67,3.61,20.1-17.37,40.71-37.08,38.98Z"></path>
  <path class="cls-7" d="M274.93,97.71c-16.75-10.76-8.87-37.92,11.26-36.8,1.53.08,4.47.57,5.91,1.04,27.28,8.8,7.79,51.77-17.17,35.76Z"></path>
  <path class="cls-8" d="M51.72,225.96c13.7-.07,22.02,13.59,15.47,25.8-10.04,18.7-38.58,6.19-31.11-14.87,2.06-5.81,9.51-10.9,15.64-10.93Z"></path>
  <path class="cls-11" d="M213.42,1.37c-1.53,1.41-5.94.63-6.89-1.22,2.07.19,4.88.69,6.89,1.22Z"></path>
</svg></svg><style>@media (prefers-color-scheme: light) { :root { filter: none; } }
@media (prefers-color-scheme: dark) { :root { filter: none; } }
</style></svg>